# xmcd
#
# Track frame offsets:
#	150
#	18337
#	35395
#	48385
#	67260
#	84737
#	105180
#	114692
#	130725
#	143170
#	158852
#	174790
#	192812
#	202900
#	223445
#	237835
#
# Disc length: 3396 seconds
#
# Revision: 1
# Processed by: cddbd v1.5.1PL0 Copyright (c) Steve Scherf et al.
# Submitted via: CDex 1.50Beta5
#
DISCID=db0d4210
DTITLE=金子由香利 - 金子由香利BEST COLLECTION
DYEAR=1989
DGENRE=
TTITLE0=愛の砂漠
TTITLE1=ロマンス
TTITLE2=詩人の魂
TTITLE3=ラ・ボエーム
TTITLE4=暗い日曜日
TTITLE5=枯葉
TTITLE6=愛の幕切れ
TTITLE7=人生は過ぎて行く
TTITLE8=めぐり逢い
TTITLE9=バラ色の人生
TTITLE10=すみれの花咲く頃
TTITLE11=私は一人片隅で
TTITLE12=おゝ我が人生
TTITLE13=ミラボー橋
TTITLE14=愛の讃歌
TTITLE15=聞かせてよ愛の言葉を
EXTD=
EXTT0=
EXTT1=
EXTT2=
EXTT3=
EXTT4=
EXTT5=
EXTT6=
EXTT7=
EXTT8=
EXTT9=
EXTT10=
EXTT11=
EXTT12=
EXTT13=
EXTT14=
EXTT15=
PLAYORDER=
